<mxfile host="app.diagrams.net" modified="2024-03-14T16:14:46.594Z" agent="Mozilla/5.0 (Windows NT 10.0; Win64; x64) AppleWebKit/537.36 (KHTML, like Gecko) Chrome/122.0.0.0 Safari/537.36" etag="YE44LnE6NJseS7SR5HYs" version="24.0.6" type="github">
  <diagram name="Страница — 1" id="bz7KGFj_d9KSnCM6_nWx">
    <mxGraphModel dx="1304" dy="785" grid="1" gridSize="10" guides="1" tooltips="1" connect="1" arrows="1" fold="1" page="1" pageScale="1" pageWidth="827" pageHeight="1169" math="0" shadow="0">
      <root>
        <mxCell id="0" />
        <mxCell id="1" parent="0" />
        <mxCell id="268EyjQ_LqyIpYp6X34K-8" style="edgeStyle=orthogonalEdgeStyle;rounded=0;orthogonalLoop=1;jettySize=auto;html=1;entryX=0;entryY=0.5;entryDx=0;entryDy=0;curved=1;" edge="1" parent="1" source="268EyjQ_LqyIpYp6X34K-1" target="268EyjQ_LqyIpYp6X34K-7">
          <mxGeometry relative="1" as="geometry" />
        </mxCell>
        <mxCell id="268EyjQ_LqyIpYp6X34K-12" style="edgeStyle=orthogonalEdgeStyle;rounded=0;orthogonalLoop=1;jettySize=auto;html=1;entryX=0;entryY=0.5;entryDx=0;entryDy=0;curved=1;" edge="1" parent="1" source="268EyjQ_LqyIpYp6X34K-1" target="268EyjQ_LqyIpYp6X34K-11">
          <mxGeometry relative="1" as="geometry" />
        </mxCell>
        <mxCell id="268EyjQ_LqyIpYp6X34K-15" style="edgeStyle=orthogonalEdgeStyle;rounded=0;orthogonalLoop=1;jettySize=auto;html=1;curved=1;" edge="1" parent="1" source="268EyjQ_LqyIpYp6X34K-1" target="268EyjQ_LqyIpYp6X34K-14">
          <mxGeometry relative="1" as="geometry" />
        </mxCell>
        <mxCell id="268EyjQ_LqyIpYp6X34K-18" style="edgeStyle=orthogonalEdgeStyle;rounded=0;orthogonalLoop=1;jettySize=auto;html=1;entryX=0;entryY=0.5;entryDx=0;entryDy=0;curved=1;" edge="1" parent="1" source="268EyjQ_LqyIpYp6X34K-1" target="268EyjQ_LqyIpYp6X34K-17">
          <mxGeometry relative="1" as="geometry" />
        </mxCell>
        <mxCell id="268EyjQ_LqyIpYp6X34K-21" style="edgeStyle=orthogonalEdgeStyle;rounded=0;orthogonalLoop=1;jettySize=auto;html=1;entryX=0;entryY=0.5;entryDx=0;entryDy=0;curved=1;" edge="1" parent="1" source="268EyjQ_LqyIpYp6X34K-1" target="268EyjQ_LqyIpYp6X34K-20">
          <mxGeometry relative="1" as="geometry" />
        </mxCell>
        <mxCell id="268EyjQ_LqyIpYp6X34K-24" style="edgeStyle=orthogonalEdgeStyle;rounded=0;orthogonalLoop=1;jettySize=auto;html=1;entryX=0;entryY=0.5;entryDx=0;entryDy=0;curved=1;" edge="1" parent="1" source="268EyjQ_LqyIpYp6X34K-1" target="268EyjQ_LqyIpYp6X34K-23">
          <mxGeometry relative="1" as="geometry" />
        </mxCell>
        <mxCell id="268EyjQ_LqyIpYp6X34K-1" value="тестировщик" style="shape=umlActor;verticalLabelPosition=bottom;verticalAlign=top;html=1;" vertex="1" parent="1">
          <mxGeometry x="160" y="340" width="30" height="60" as="geometry" />
        </mxCell>
        <mxCell id="268EyjQ_LqyIpYp6X34K-2" value="база данных" style="shape=cylinder3;whiteSpace=wrap;html=1;boundedLbl=1;backgroundOutline=1;size=15;" vertex="1" parent="1">
          <mxGeometry x="610" y="210" width="60" height="80" as="geometry" />
        </mxCell>
        <mxCell id="268EyjQ_LqyIpYp6X34K-31" style="edgeStyle=orthogonalEdgeStyle;rounded=0;orthogonalLoop=1;jettySize=auto;html=1;entryX=1;entryY=0.5;entryDx=0;entryDy=0;curved=1;" edge="1" parent="1" source="268EyjQ_LqyIpYp6X34K-3" target="268EyjQ_LqyIpYp6X34K-30">
          <mxGeometry relative="1" as="geometry">
            <Array as="points">
              <mxPoint x="700" y="360" />
              <mxPoint x="700" y="690" />
            </Array>
          </mxGeometry>
        </mxCell>
        <mxCell id="268EyjQ_LqyIpYp6X34K-3" value="система" style="shape=umlActor;verticalLabelPosition=bottom;verticalAlign=top;html=1;outlineConnect=0;" vertex="1" parent="1">
          <mxGeometry x="625" y="330" width="30" height="60" as="geometry" />
        </mxCell>
        <mxCell id="268EyjQ_LqyIpYp6X34K-7" value="Получить данные покупателей из города Пинск" style="ellipse;whiteSpace=wrap;html=1;" vertex="1" parent="1">
          <mxGeometry x="300" y="190" width="140" height="70" as="geometry" />
        </mxCell>
        <mxCell id="268EyjQ_LqyIpYp6X34K-9" style="edgeStyle=orthogonalEdgeStyle;rounded=0;orthogonalLoop=1;jettySize=auto;html=1;curved=1;" edge="1" parent="1" source="268EyjQ_LqyIpYp6X34K-7">
          <mxGeometry relative="1" as="geometry">
            <mxPoint x="620" y="330" as="targetPoint" />
            <Array as="points">
              <mxPoint x="580" y="225" />
              <mxPoint x="580" y="330" />
            </Array>
          </mxGeometry>
        </mxCell>
        <mxCell id="268EyjQ_LqyIpYp6X34K-10" style="edgeStyle=orthogonalEdgeStyle;rounded=0;orthogonalLoop=1;jettySize=auto;html=1;exitX=0.5;exitY=0;exitDx=0;exitDy=0;exitPerimeter=0;entryX=0.5;entryY=1;entryDx=0;entryDy=0;entryPerimeter=0;" edge="1" parent="1" source="268EyjQ_LqyIpYp6X34K-3" target="268EyjQ_LqyIpYp6X34K-2">
          <mxGeometry relative="1" as="geometry" />
        </mxCell>
        <mxCell id="268EyjQ_LqyIpYp6X34K-11" value="Получить данные всех покупателей" style="ellipse;whiteSpace=wrap;html=1;" vertex="1" parent="1">
          <mxGeometry x="300" y="280" width="140" height="60" as="geometry" />
        </mxCell>
        <mxCell id="268EyjQ_LqyIpYp6X34K-13" style="edgeStyle=orthogonalEdgeStyle;rounded=0;orthogonalLoop=1;jettySize=auto;html=1;curved=1;" edge="1" parent="1" source="268EyjQ_LqyIpYp6X34K-11">
          <mxGeometry relative="1" as="geometry">
            <mxPoint x="620" y="340" as="targetPoint" />
          </mxGeometry>
        </mxCell>
        <mxCell id="268EyjQ_LqyIpYp6X34K-14" value="Получить количество покупателей женского пола" style="ellipse;whiteSpace=wrap;html=1;" vertex="1" parent="1">
          <mxGeometry x="302.5" y="360" width="135" height="70" as="geometry" />
        </mxCell>
        <mxCell id="268EyjQ_LqyIpYp6X34K-16" style="edgeStyle=orthogonalEdgeStyle;rounded=0;orthogonalLoop=1;jettySize=auto;html=1;entryX=0;entryY=0.3333333333333333;entryDx=0;entryDy=0;entryPerimeter=0;curved=1;strokeColor=default;exitX=0.992;exitY=0.494;exitDx=0;exitDy=0;exitPerimeter=0;" edge="1" parent="1" source="268EyjQ_LqyIpYp6X34K-14">
          <mxGeometry relative="1" as="geometry">
            <mxPoint x="430.0000000000001" y="392.5" as="sourcePoint" />
            <mxPoint x="617.5" y="347.5" as="targetPoint" />
            <Array as="points">
              <mxPoint x="436" y="392" />
              <mxPoint x="578" y="392" />
              <mxPoint x="578" y="347" />
            </Array>
          </mxGeometry>
        </mxCell>
        <mxCell id="268EyjQ_LqyIpYp6X34K-17" value="Получить суммарный вес покупателей мужского пола" style="ellipse;whiteSpace=wrap;html=1;" vertex="1" parent="1">
          <mxGeometry x="305" y="450" width="135" height="70" as="geometry" />
        </mxCell>
        <mxCell id="268EyjQ_LqyIpYp6X34K-19" style="edgeStyle=orthogonalEdgeStyle;rounded=0;orthogonalLoop=1;jettySize=auto;html=1;curved=1;" edge="1" parent="1" source="268EyjQ_LqyIpYp6X34K-17">
          <mxGeometry relative="1" as="geometry">
            <mxPoint x="620" y="360" as="targetPoint" />
            <Array as="points">
              <mxPoint x="580" y="485" />
              <mxPoint x="580" y="360" />
            </Array>
          </mxGeometry>
        </mxCell>
        <mxCell id="268EyjQ_LqyIpYp6X34K-22" style="edgeStyle=orthogonalEdgeStyle;rounded=0;orthogonalLoop=1;jettySize=auto;html=1;curved=1;" edge="1" parent="1">
          <mxGeometry relative="1" as="geometry">
            <mxPoint x="620" y="370" as="targetPoint" />
            <mxPoint x="437.5" y="584" as="sourcePoint" />
            <Array as="points">
              <mxPoint x="605" y="584" />
              <mxPoint x="605" y="420" />
              <mxPoint x="600" y="420" />
              <mxPoint x="600" y="370" />
            </Array>
          </mxGeometry>
        </mxCell>
        <mxCell id="268EyjQ_LqyIpYp6X34K-20" value="Получить максимальную и минимальную сумму на счете" style="ellipse;whiteSpace=wrap;html=1;" vertex="1" parent="1">
          <mxGeometry x="291.25" y="545" width="162.5" height="80" as="geometry" />
        </mxCell>
        <mxCell id="268EyjQ_LqyIpYp6X34K-25" style="edgeStyle=orthogonalEdgeStyle;rounded=0;orthogonalLoop=1;jettySize=auto;html=1;curved=1;" edge="1" parent="1">
          <mxGeometry relative="1" as="geometry">
            <mxPoint x="618.75" y="320" as="targetPoint" />
            <mxPoint x="440" y="140" as="sourcePoint" />
            <Array as="points">
              <mxPoint x="588.75" y="140" />
              <mxPoint x="588.75" y="320" />
            </Array>
          </mxGeometry>
        </mxCell>
        <mxCell id="268EyjQ_LqyIpYp6X34K-23" value="Получить сведения о покупателя и магазинах&lt;br/&gt;для магазинов с id = 1 и 3" style="ellipse;whiteSpace=wrap;html=1;" vertex="1" parent="1">
          <mxGeometry x="288.75" y="100" width="162.5" height="80" as="geometry" />
        </mxCell>
        <mxCell id="268EyjQ_LqyIpYp6X34K-32" style="edgeStyle=orthogonalEdgeStyle;rounded=0;orthogonalLoop=1;jettySize=auto;html=1;curved=1;" edge="1" parent="1" source="268EyjQ_LqyIpYp6X34K-30" target="268EyjQ_LqyIpYp6X34K-1">
          <mxGeometry relative="1" as="geometry">
            <Array as="points">
              <mxPoint x="120" y="690" />
              <mxPoint x="120" y="370" />
            </Array>
          </mxGeometry>
        </mxCell>
        <mxCell id="268EyjQ_LqyIpYp6X34K-30" value="Отправить полученные данные" style="ellipse;whiteSpace=wrap;html=1;" vertex="1" parent="1">
          <mxGeometry x="310" y="650" width="120" height="80" as="geometry" />
        </mxCell>
      </root>
    </mxGraphModel>
  </diagram>
</mxfile>
